<svg width="52" height="52" viewBox="0 0 52 52" fill="none" xmlns="http://www.w3.org/2000/svg">
<rect width="52" height="52" rx="26" fill="#424242"/>
<path d="M31.8725 25.6849C31.8387 22.8952 34.2731 21.5721 34.3914 21.4924C33.9051 20.8435 33.2656 20.31 32.5234 19.9337C31.7812 19.5575 30.9565 19.3489 30.1143 19.3244C28.3054 19.149 26.5641 20.3287 25.6512 20.3287C24.7383 20.3287 23.3183 19.3403 21.8137 19.3722C20.8234 19.3972 19.857 19.6646 19.0093 20.1481C18.1617 20.6316 17.4619 21.3146 16.9787 22.13C14.9162 25.4936 16.4546 30.4832 18.4495 33.2251C19.43 34.5482 20.6134 36.0467 22.1349 35.9989C23.6226 35.9511 24.1635 35.0902 25.9555 35.0902C27.7475 35.0902 28.2547 35.9989 29.81 35.967C31.3991 35.9511 32.4135 34.612 33.3771 33.257C34.5097 31.7266 34.9662 30.2282 35 30.1485C34.9662 30.1166 31.9063 29.0326 31.8725 25.6849ZM28.9309 17.5071C29.7424 16.5825 30.2833 15.2753 30.1481 14C28.9647 14.0478 27.5447 14.7333 26.6994 15.6579C26.2619 16.1196 25.9272 16.6595 25.7152 17.2455C25.5032 17.8315 25.4182 18.4517 25.4653 19.0693C26.7839 19.165 28.1194 18.4317 28.9309 17.5071Z" fill="white"/>
</svg>
