<svg width="52" height="52" viewBox="0 0 52 52" fill="none" xmlns="http://www.w3.org/2000/svg">
<rect x="0.5" y="0.5" width="51" height="51" rx="25.5" fill="#F5F5F5"/>
<rect x="0.5" y="0.5" width="51" height="51" rx="25.5" stroke="#E0E0E0"/>
<path d="M40.0864 26.3376C40.0864 25.3406 40.0056 24.3382 39.8331 23.3574H25.9995V29.0052H33.9214C33.5927 30.8266 32.5364 32.438 30.9898 33.4618V37.1264H35.7159C38.4912 34.572 40.0864 30.7997 40.0864 26.3376Z" fill="#4285F4"/>
<path d="M25.9995 40.6668C29.9551 40.6668 33.2908 39.368 35.7212 37.1262L30.9951 33.4617C29.6801 34.3562 27.9827 34.8628 26.0049 34.8628C22.1787 34.8628 18.9345 32.2814 17.7705 28.811H12.8934V32.5886C15.3832 37.5412 20.4542 40.6668 25.9995 40.6668Z" fill="#34A853"/>
<path d="M17.7651 28.8109C17.1508 26.9895 17.1508 25.0172 17.7651 23.1957V19.418H12.8935C10.8133 23.5621 10.8133 28.4445 12.8935 32.5887L17.7651 28.8109Z" fill="#FBBC04"/>
<path d="M25.9994 17.1384C28.0904 17.1061 30.1113 17.8929 31.6256 19.3372L35.8128 15.1499C33.1614 12.6602 29.6424 11.2914 25.9994 11.3345C20.4542 11.3345 15.3832 14.4601 12.8934 19.418L17.7651 23.1957C18.9237 19.7198 22.1733 17.1384 25.9994 17.1384Z" fill="#EA4335"/>
</svg>
