<svg width="52" height="52" viewBox="0 0 52 52" fill="none" xmlns="http://www.w3.org/2000/svg">
<rect width="52" height="52" rx="26" fill="#FFE812"/>
<g clip-path="url(#clip0_2609_25199)">
<path d="M26 14.4976C18.82 14.4976 12.9982 19.0826 12.9982 24.7463C12.9982 28.4019 15.4357 31.6194 19.0913 33.4344C18.8894 34.1182 17.8113 37.8532 17.7675 38.1426C17.7675 38.1426 17.7413 38.3619 17.8813 38.4494C18.0213 38.5369 18.1882 38.4669 18.1882 38.4669C18.6 38.4057 22.9313 35.3632 23.685 34.8376C24.43 34.9426 25.2019 34.9951 25.9907 34.9951C33.1707 34.9951 38.9925 30.4101 38.9925 24.7463C39.0019 19.0913 33.18 14.4976 26 14.4976Z" fill="black"/>
</g>
<defs>
<clipPath id="clip0_2609_25199">
<rect width="32" height="32" fill="white" transform="translate(10 10)"/>
</clipPath>
</defs>
</svg>
